HIERARCHY
ROOT Spine
{
    OFFSET 0.0 0.0 -0.0
    CHANNELS 6 Xposition Yposition Zposition Zrotation Xrotation Yrotation
    JOINT ShoulderCenter
    {
        OFFSET 0.0 22.589458465576172 0.0
        CHANNELS 3 Zrotation Xrotation Yrotation
        JOINT LeftShoulder
        {
            OFFSET 18.250019073486328 0.0 0.0
            CHANNELS 3 Zrotation Xrotation Yrotation
            JOINT LeftElbow
            {
                OFFSET 21.977169036865234 0.0 0.0
                CHANNELS 3 Zrotation Xrotation Yrotation
                JOINT LeftHand
                {
                    OFFSET 27.386375427246094 0.0 0.0
                    CHANNELS 3 Zrotation Xrotation Yrotation
                    End Site
                    {
                        OFFSET 10.954549789428711 0.0 0.0
                    }
                }
            }
        }
        JOINT RightShoulder
        {
            OFFSET -18.250019073486328 0.0 0.0
            CHANNELS 3 Zrotation Xrotation Yrotation
            JOINT RightElbow
            {
                OFFSET -21.977169036865234 0.0 0.0
                CHANNELS 3 Zrotation Xrotation Yrotation
                JOINT RightHand
                {
                    OFFSET -27.386375427246094 0.0 0.0
                    CHANNELS 3 Zrotation Xrotation Yrotation
                    End Site
                    {
                        OFFSET -10.954549789428711 0.0 0.0
                    }
                }
            }
        }
        End Site
        {
            OFFSET 0.0 9.035784721374512 0.0
        }
    }
    JOINT LeftHip
    {
        OFFSET 21.856438522326044 -21.856438522326044 0.0
        CHANNELS 3 Zrotation Xrotation Yrotation
        JOINT LeftKnee
        {
            OFFSET 0.0 -35.415802001953125 0.0
            CHANNELS 3 Zrotation Xrotation Yrotation
            JOINT LeftFoot
            {
                OFFSET 0.0 -44.619407653808594 0.0
                CHANNELS 3 Zrotation Xrotation Yrotation
                End Site
                {
                    OFFSET 0.0 0.0 17.847763061523438
                }
            }
        }
    }
    JOINT RightHip
    {
        OFFSET -21.856438522326044 -21.856438522326044 0.0
        CHANNELS 3 Zrotation Xrotation Yrotation
        JOINT RightKnee
        {
            OFFSET 0.0 -35.415802001953125 0.0
            CHANNELS 3 Zrotation Xrotation Yrotation
            JOINT RightFoot
            {
                OFFSET 0.0 -44.619407653808594 0.0
                CHANNELS 3 Zrotation Xrotation Yrotation
                End Site
                {
                    OFFSET 0.0 0.0 17.847763061523438
                }
            }
        }
    }
}
MOTION
Frames: 10
Frame Time: 0.03333333333333333
-27.5051212310791 29.02117919921875 -351.5552978515625 0.8984436481312201 13.138805175902922 -145.84221110611637 2.303886642472541e-07 4.435622592327044e-09 -0.40396131146950265 -51.42355715458423 -33.42563793261993 7.323581966468342 -5.113762538575465e-07 -2.2889962708819293e-06 113.0553032315268 -1.3793457181406746e-33 -9.93923337957349e-17 -1.5902773407317584e-15 49.17008907006393 -45.4990929927372 -52.24465211200535 2.3657777300462384e-06 9.252392262318981e-07 -92.7611417755576 3.1805546814635168e-15 3.1805546814635164e-15 -9.54166404439055e-15 11.76336195541091 -3.458986040722076 57.3838928513878 5.491718074525256 -6.570866540511153 39.95860833576381 -3.1805546814635164e-15 -8.551943452472182e-32 3.0811623476677814e-15 -3.156944399561635 -1.6684811623065017 -55.200575395718765 4.489401823331274 2.3218344723214517 8.203814754948283 1.987846675914698e-16 3.4483642953516864e-34 1.987846675914698e-16
-27.501609802246094 29.010061264038086 -351.55780029296875 0.8249683650771383 13.128565675449682 -145.96733162376339 -3.711640376658052e-08 -3.0431293914057917e-07 -0.3265040058526695 -52.24018226421044 -33.27634468670642 7.513954800266205 -5.92449265475206e-06 -3.2407894863447464e-06 112.01962497272433 1.5902773407317588e-15 6.361109362927035e-15 -8.827812596100317e-32 48.90199872411761 -45.24013356907271 -51.836488398132644 -3.0011427607739595e-06 7.029576418530038e-07 -92.90297887290305 3.1805546814635176e-15 0.0 0.0 11.670313137788575 -3.3445371154596355 56.885618864337374 5.535387834871442 -6.548126597447111 40.26464182309015 0.0 0.0 1.1927080055488188e-15 -3.282500663821224 -1.6294053035665423 -55.497184916944995 4.419102647072517 2.4989363506252964 8.909956549618228 -3.975693351829396e-16 3.1805546814635164e-15 8.94531004161614e-16
-27.479618072509766 29.00834083557129 -351.5738830566406 0.7576709749798248 13.051942517275148 -145.9984031816618 1.4657769645287423e-07 2.9001808594983896e-07 -0.2685943540675916 -52.2719171265703 -33.11357054174362 7.491854115760621 -2.436646932570657e-06 -1.335264684488719e-06 111.74030702431746 -1.3793457181406746e-33 1.9878466759146975e-16 7.95138670365879e-16 48.68453990576153 -45.05475523437279 -53.15255957525433 -4.631986967302266e-06 9.592477726437217e-07 -93.24472635707613 0.0 0.0 3.1805546814635168e-15 11.569956839655429 -3.391943916412543 56.84020106624956 5.5437531577531205 -6.609224411956984 40.35860350607794 -3.310429723537619e-32 -1.5902773407317584e-15 -2.3854160110976376e-15 -3.471907240463975 -1.7313985970074919 -56.335959238448375 3.852506635138971 3.4398370171268793 12.63588979682229 -1.987846675914698e-16 1.3793457181406746e-33 -7.951386703658792e-16
-27.49134063720703 28.9498291015625 -351.5769958496094 0.7894187562969258 13.087112941936438 -145.93721617679853 2.746569933521752e-07 1.15903857601257e-06 -0.32881890554090154 -52.20299250488779 -33.32513039330485 7.554573859063158 1.6622641566787886e-06 6.2867592566145776e-06 112.80003471935326 -1.5902773407317582e-15 1.1034765745125397e-32 -7.951386703658791e-16 50.82481626129974 -44.77869155075978 -51.88575864588377 -5.749532487917879e-06 -3.692112107679012e-06 -91.70192155439338 2.648343778830095e-31 -3.1805546814635168e-15 9.54166404439055e-15 11.587444684807194 -3.478971037095807 56.92560109957893 5.698786089729207 -6.560781150362462 40.393918654563095 0.0 0.0 -9.939233379573488e-16 -3.445475239443429 -1.744172949026079 -56.223484470611744 5.086335476972138 0.8116461488586781 2.7867790904214083 -3.975693351829397e-16 1.2069275033730902e-32 -3.478731682850722e-15
-27.495220184326172 28.935161590576172 -351.5763854980469 0.7922306446779679 13.095111011980606 -146.02275081920976 -1.1871574596030467e-08 1.0801897371914666e-07 -0.23632115882356364 -52.22306723233645 -33.01538387180092 7.642872099935395 1.731840428974796e-06 3.562697337969591e-06 112.21736427152265 0.0 6.162324695335563e-15 0.0 49.408586240678105 -45.10791892292153 -53.12751086076351 -2.2542505698121893e-06 -4.512423351859221e-07 -91.58103736701763 -3.1805546814635168e-15 -3.1805546814635168e-15 -3.1805546814635168e-15 11.615971689496686 -3.4348010578945307 57.03815615193517 5.691505336395435 -6.566110971214973 40.677362065297245 3.1805546814635168e-15 8.276074308844047e-32 2.9817700138720468e-15 -3.4713160564062506 -1.7905480044267719 -56.43785189362817 5.1074350669303445 1.2232433415800488 4.183122161031954 3.975693351829396e-16 5.517382872562698e-33 1.5902773407317584e-15
-27.469179153442383 28.91775894165039 -351.5476989746094 0.6630640246232096 13.226576847408921 -146.0832362185908 -9.090937539716855e-08 1.9575944548294113e-07 -0.1813459273351207 -52.12292643688525 -32.53750395157351 7.511270530895598 1.4070889425387218e-06 -7.342995895470831e-07 112.31861598758037 4.4139062980501586e-32 6.361109362927033e-15 -7.951386703658791e-16 48.974719505356774 -45.121599762006554 -54.02905584698185 7.110699587570256e-07 1.862034487137736e-06 -91.17638833706496 -3.1805546814635168e-15 9.54166404439055e-15 2.648343778830095e-31 11.558694897578455 -3.3289553532842997 56.959542505808756 6.026654639823824 -6.2156936970147525 40.28145674376447 0.0 0.0 -4.969616689786745e-16 -3.606369342785372 -1.5948730927976578 -56.732762936160086 4.9794442233549105 2.195864772609941 7.598112332095651 0.0 0.0 4.969616689786746e-16
-27.455537796020508 28.91303825378418 -351.53399658203125 0.634775136330003 13.248324645225491 -146.182347778525 5.457925725445839e-07 4.493254089392243e-07 -0.04144584404330902 -51.06654315776402 -33.22305117207812 7.131345344924731 -3.533038304434253e-06 -2.4591483646657226e-06 112.56963451555124 -6.896728590703373e-34 9.939233379573492e-17 7.951386703658794e-16 47.24286997487489 -45.01513414952704 -58.80255785577615 1.8113963900070098e-06 1.1353603013185668e-06 -85.57271622143276 0.0 -3.1805546814635164e-15 0.0 11.59395590117695 -3.216330933886859 56.971256277818746 5.825014633897806 -6.246744599631812 40.01568491171924 5.034611871213462e-32 -7.951386703658791e-16 7.255640367088647e-15 -3.64076520995913 -1.5363541411596264 -56.82903349070391 5.043422303076882 2.1893405159205623 7.564086319498062 -1.6552148617688095e-32 -3.1805546814635168e-15 -5.963540027744094e-16
-27.454010009765625 28.91474151611328 -351.5378112792969 0.6521236652803049 13.244671826585424 -146.2681011725958 -5.466343982253636e-07 -2.9111431944279157e-07 0.06376671186497358 -50.734049341386736 -34.25799376677051 7.163616904523461 -2.1015995230094097e-06 -3.7242167559656093e-06 113.25292545311731 -1.5902773407317584e-15 0.0 0.0 50.30858759592276 -45.69380121031777 -55.02918904196583 3.6249223034920918e-06 -1.4410134654284097e-06 -89.44556384476445 6.361109362927033e-15 0.0 0.0 11.652101120559326 -3.200148216791215 57.32330655088426 5.479216562034306 -6.318875323507424 39.32715044378157 0.0 0.0 9.939233379573492e-17 -3.633387922842978 -1.6164863686260154 -56.98510129626309 4.294724994587674 3.4884825622153928 12.484829453499485 0.0 0.0 0.0
-27.453550338745117 28.912370681762695 -351.52081298828125 0.6655738544950159 13.252543365803753 -146.26658353601218 3.2699978525212536e-07 -5.759842221906613e-07 0.10500884299609363 -50.97590584221855 -32.86247190358097 7.290177413313034 1.1960362944084446e-06 1.5171464431353913e-06 113.27566966128295 -1.5902773407317588e-15 1.1034765745125397e-32 -7.951386703658794e-16 50.9661392874925 -44.95689130917316 -53.36490655912878 -1.046570935039858e-06 -1.97305093044987e-06 -92.73883866935371 0.0 -3.1805546814635168e-15 0.0 11.584410137846854 -3.156918843805552 56.92863802572713 5.685302497344539 -6.586872839413181 41.161796098158256 9.655420026984722e-33 7.951386703658791e-16 -1.3914926731402884e-15 -3.5160195491266073 -1.5842640237274543 -56.525608813943975 4.3818961986853955 3.1651855120189705 11.260364761646914 0.0 0.0 -7.951386703658792e-16
-27.418100357055664 28.892791748046875 -351.48870849609375 0.5737081480721011 13.281563582562226 -146.245314297257 7.836967399112858e-08 -4.310393970750164e-07 0.0827051698379793 -50.7631580177956 -33.88290083184336 7.657455497803197 -3.833583859265263e-06 3.5803250808079845e-06 112.86269379105683 0.0 -9.93923337957349e-17 0.0 51.55811394925371 -44.087434422675614 -52.90185274377441 8.374946148942992e-07 -3.376560071858074e-06 -96.42779830824497 -6.3611093629270335e-15 0.0 0.0 11.494602932895813 -3.083191992743252 56.50377099537968 5.859127874105851 -6.5839583367690455 41.70361784020683 2.4828222926532145e-32 7.951386703658791e-16 -3.578124016646456e-15 -3.595129873262434 -1.544115448317357 -56.748676649989186 4.339237577261721 3.0161356464013327 10.789303152982582 -1.987846675914698e-16 3.4483642953516864e-33 -1.987846675914698e-15
